<svg width="20" height="19" viewBox="0 0 20 19" fill="none" xmlns="http://www.w3.org/2000/svg">
<g clip-path="url(#clip0_227_2097)">
<path d="M11.1696 16.6641C6.66096 16.6641 3.00592 13.0091 3.00592 8.5004C3.00592 3.99169 6.66092 0.336731 11.1696 0.336731C15.6783 0.336731 19.3333 3.99173 19.3333 8.50044C19.3333 13.0091 15.6783 16.6641 11.1696 16.6641ZM11.1696 2.66923C7.94913 2.66923 5.33842 5.27994 5.33842 8.50044C5.33842 11.7209 7.94913 14.3316 11.1696 14.3316C14.3901 14.3316 17.0008 11.7209 17.0008 8.50044C17.0008 5.27994 14.3901 2.66923 11.1696 2.66923Z" fill="#3626A7"/>
<path d="M1.83969 18.9966C1.52969 18.9984 1.23175 18.8767 1.01167 18.6584C0.55434 18.2048 0.551325 17.4664 1.00491 17.0091C1.00716 17.0068 1.00942 17.0046 1.01167 17.0023L5.39673 12.6173C5.87014 12.1599 6.62464 12.173 7.08197 12.6464C7.5393 13.1198 7.52623 13.8743 7.05283 14.3316L2.66772 18.6584C2.44764 18.8767 2.1497 18.9984 1.83969 18.9966Z" fill="#3626A7"/>
</g>
<defs>
<clipPath id="clip0_227_2097">
<rect width="18.6667" height="18.6667" fill="white" transform="translate(0.666687 0.333344)"/>
</clipPath>
</defs>
</svg>
