<svg width="18" height="24" viewBox="0 0 18 24" fill="none" xmlns="http://www.w3.org/2000/svg">
<path d="M1.35657 2.31245C1.35657 1.71111 1.84403 1.22363 2.44539 1.22363H15.5112C16.1126 1.22363 16.6 1.71111 16.6 2.31245V21.9112C16.6 22.5125 16.1126 23 15.5112 23H2.44539C1.84403 23 1.35657 22.5125 1.35657 21.9112V2.31245Z" stroke="#BFBFBF" stroke-width="2"/>
<path d="M5.16742 5.5789H12.7891" stroke="#BFBFBF" stroke-width="2" stroke-linecap="round" stroke-linejoin="round"/>
<path d="M5.16743 11.5674C5.76877 11.5674 6.25625 11.0799 6.25625 10.4786C6.25625 9.87725 5.76877 9.38977 5.16743 9.38977C4.56609 9.38977 4.07861 9.87725 4.07861 10.4786C4.07861 11.0799 4.56609 11.5674 5.16743 11.5674Z" fill="#BFBFBF"/>
<path d="M5.16743 14.8339C5.76877 14.8339 6.25625 14.3464 6.25625 13.745C6.25625 13.1437 5.76877 12.6562 5.16743 12.6562C4.56609 12.6562 4.07861 13.1437 4.07861 13.745C4.07861 14.3464 4.56609 14.8339 5.16743 14.8339Z" fill="#BFBFBF"/>
<path d="M5.16743 18.1003C5.76877 18.1003 6.25625 17.6128 6.25625 17.0115C6.25625 16.4102 5.76877 15.9227 5.16743 15.9227C4.56609 15.9227 4.07861 16.4102 4.07861 17.0115C4.07861 17.6128 4.56609 18.1003 5.16743 18.1003Z" fill="#BFBFBF"/>
<path d="M8.97828 11.5674C9.57962 11.5674 10.0671 11.0799 10.0671 10.4786C10.0671 9.87725 9.57962 9.38977 8.97828 9.38977C8.37695 9.38977 7.88947 9.87725 7.88947 10.4786C7.88947 11.0799 8.37695 11.5674 8.97828 11.5674Z" fill="#BFBFBF"/>
<path d="M8.97828 14.8339C9.57962 14.8339 10.0671 14.3464 10.0671 13.745C10.0671 13.1437 9.57962 12.6562 8.97828 12.6562C8.37695 12.6562 7.88947 13.1437 7.88947 13.745C7.88947 14.3464 8.37695 14.8339 8.97828 14.8339Z" fill="#BFBFBF"/>
<path d="M8.97828 18.1003C9.57962 18.1003 10.0671 17.6128 10.0671 17.0115C10.0671 16.4102 9.57962 15.9227 8.97828 15.9227C8.37695 15.9227 7.88947 16.4102 7.88947 17.0115C7.88947 17.6128 8.37695 18.1003 8.97828 18.1003Z" fill="#BFBFBF"/>
<path d="M12.7891 11.5674C13.3905 11.5674 13.878 11.0799 13.878 10.4786C13.878 9.87725 13.3905 9.38977 12.7891 9.38977C12.1878 9.38977 11.7003 9.87725 11.7003 10.4786C11.7003 11.0799 12.1878 11.5674 12.7891 11.5674Z" fill="#BFBFBF"/>
<path d="M12.7891 14.8339C13.3905 14.8339 13.878 14.3464 13.878 13.745C13.878 13.1437 13.3905 12.6562 12.7891 12.6562C12.1878 12.6562 11.7003 13.1437 11.7003 13.745C11.7003 14.3464 12.1878 14.8339 12.7891 14.8339Z" fill="#BFBFBF"/>
<path d="M12.7891 18.1003C13.3905 18.1003 13.878 17.6128 13.878 17.0115C13.878 16.4102 13.3905 15.9227 12.7891 15.9227C12.1878 15.9227 11.7003 16.4102 11.7003 17.0115C11.7003 17.6128 12.1878 18.1003 12.7891 18.1003Z" fill="#BFBFBF"/>
</svg>
